:SAMPLES-PER-SECOND 30
:FULLY-SPECIFIED
:DEGREES
592
root  -1.04603 36.0108 4.85959 3.78265 -81.311 0.901489
RightUpLeg  -39.7931 -16.5664 -0.247267
RightLeg  55.8745 -0.00307607 -0.502237
RightFoot  -6.76533 -0.284712 6.02185
RightToes  6.35927e-011 1.30204e-014 -6.03759e-014
Spine  35.6858 -0.648932 1.84726
Spine1  7.37176 -0.216781 1.1018
HEad  -51.5635 -6.15365 -2.191
LeftShoulder1  0.722042 -0.355247 -11.5096
LeftArm  14.9591 31.1558 -31.8501
LeftForeArm  -141.147 -67.5041 -161.903
LeftHand  -2.6769 -11.6661 19.8033
RightShoulder  0.666589 -0.389694 14.6669
RightArm  15.0475 -47.7567 31.866
RightForeArm  -131.011 64.2626 165.022
RightHand  -2.57822 6.9102 -24.5096
LeftUpLeg  -38.6113 22.2924 4.73531
LeftLeg  69.6452 2.22447 7.40446
LeftFoot  2.17769 1.62579 -14.3714
LeftToes  7.40077e-010 7.2695e-011 -6.03601e-011
593
root  -0.85797 36.0739 5.28804 2.85284 -81.9196 3.16925
RightUpLeg  -42.1696 -12.2874 -1.12774
RightLeg  56.3485 -2.82065 -4.99314
RightFoot  -3.61984 -0.39639 5.50726
RightToes  6.35927e-011 1.30204e-014 -6.03759e-014
Spine  35.8123 -0.888472 0.0268724
Spine1  6.56454 -0.901294 1.07071
HEad  -51.611 -4.58152 -2.83692
LeftShoulder1  0.561955 0.417996 -10.9969
LeftArm  4.662 30.9781 -29.2037
LeftForeArm  -163.5 -75.2501 -144.182
LeftHand  -2.49172 -5.99562 26.2642
RightShoulder  0.672689 -0.399161 14.9538
RightArm  2.19488 -46.3216 29.8547
RightForeArm  -159.092 69.5405 156.429
RightHand  -2.45277 4.51649 -29.5848
LeftUpLeg  -31.9255 13.0466 3.30499
LeftLeg  61.3072 6.26233 12.9255
LeftFoot  -10.2239 0.261055 -20.7511
LeftToes  7.40077e-010 7.2695e-011 -6.03601e-011
594
root  -0.66171 35.9893 5.79982 8.60687 -84.3363 -1.76965
RightUpLeg  -46.0643 -14.2322 0.167206
RightLeg  58.3581 -1.74077 -3.44622
RightFoot  1.64041 -0.618113 5.47826
RightToes  6.35927e-011 1.30204e-014 -6.03759e-014
Spine  37.0328 -0.41053 -0.951773
Spine1  3.73404 -0.671662 1.43099
HEad  -50.454 -2.25189 -3.47053
LeftShoulder1  0.503779 0.821277 -11.576
LeftArm  -10.0676 31.9258 -24.8612
LeftForeArm  89.3436 -79.5669 -53.431
LeftHand  -0.233408 12.2749 10.0034
RightShoulder  0.735548 -0.154444 15.271
RightArm  -13.072 -44.7152 24.4295
RightForeArm  135.353 79.9964 112.774
RightHand  0.121043 -8.27099 -22.2056
LeftUpLeg  -29.2113 9.32542 2.28922
LeftLeg  57.6361 9.01327 15.5644
LeftFoot  -19.5335 -1.57147 -23.7705
LeftToes  7.40077e-010 7.2695e-011 -6.03601e-011
595
root  -0.547279 35.8107 6.13927 8.23608 -86.8514 -1.42444
RightUpLeg  -51.2021 -20.947 2.90494
RightLeg  61.9915 -0.545367 -1.69377
RightFoot  9.64391 -0.956035 5.55629
RightToes  6.35927e-011 1.30204e-014 -6.03759e-014
Spine  37.816 0.717173 -3.12255
Spine1  2.33814 -0.0688113 2.01202
HEad  -50.3377 -0.0839915 -3.2868
LeftShoulder1  0.597132 0.4633 -12.5616
LeftArm  -17.0578 33.4389 -21.9235
LeftForeArm  56.0652 -71.8732 -26.6128
LeftHand  -4.62395 26.1711 -25.6807
RightShoulder  0.821679 0.246909 15.1988
RightArm  -20.2559 -43.2496 22.8188
RightForeArm  70.8073 78.5289 49.7025
RightHand  -0.42361 -26.5754 1.72931
LeftUpLeg  -29.7419 11.458 1.48135
LeftLeg  59.1045 8.68951 15.8341
LeftFoot  -20.6531 -1.70811 -22.1355
LeftToes  7.40077e-010 7.2695e-011 -6.03601e-011
596
root  -0.569854 35.5958 6.34107 -11.658 -87.8929 17.2734
RightUpLeg  -56.5445 -30.1272 6.67058
RightLeg  67.1372 -2.37951 -7.11171
RightFoot  16.4809 -0.974079 4.38602
RightToes  6.35927e-011 1.30204e-014 -6.03759e-014
Spine  37.1012 1.40376 -5.28715
Spine1  4.83961 0.0762285 1.96588
HEad  -51.4974 1.05994 -2.23349
LeftShoulder1  0.619613 0.321123 -12.3521
LeftArm  -10.4583 34.4027 -20.6961
LeftForeArm  79.3254 -76.9205 -43.1536
LeftHand  -6.84591 23.0452 -41.2076
RightShoulder  0.824899 0.301422 14.94
RightArm  -14.3137 -42.8084 24.3352
RightForeArm  91.8796 79.6456 58.6451
RightHand  -3.64148 -28.1818 17.4248
LeftUpLeg  -30.0404 16.1546 0.958589
LeftLeg  61.8179 6.43382 13.4465
LeftFoot  -18.1321 -1.11236 -20.4097
LeftToes  7.40077e-010 7.2695e-011 -6.03601e-011
597
root  -0.721336 35.384 6.54117 -41.0261 -87.1779 45.0155
RightUpLeg  -61.5937 -39.597 10.4176
RightLeg  73.224 -4.26915 -16.6037
RightFoot  16.6272 -0.687779 3.24269
RightToes  6.35927e-011 1.30204e-014 -6.03759e-014
Spine  35.2224 1.39751 -6.50191
Spine1  8.8241 -0.121317 0.932948
HEad  -51.0499 0.873253 -1.10995
LeftShoulder1  0.567643 0.386189 -10.9934
LeftArm  6.06469 35.3159 -21.6248
LeftForeArm  171.612 -79.5701 -127.115
LeftHand  -2.12201 11.2607 -25.6159
RightShoulder  0.769306 0.0316587 15.0441
RightArm  1.49072 -45.2451 27.1074
RightForeArm  172.322 79.7961 126.406
RightHand  -0.936296 -15.0466 5.16678
LeftUpLeg  -28.9334 21.5476 0.34836
LeftLeg  63.3894 3.84371 9.02505
LeftFoot  -17.552 -0.961085 -19.5384
LeftToes  7.40077e-010 7.2695e-011 -6.03601e-011
598
root  -1.01814 35.1818 6.71972 -60.5772 -85.7399 63.5927
RightUpLeg  -65.826 -46.7719 12.9624
RightLeg  78.1834 -3.21373 -18.8669
RightFoot  13.4574 -1.24811 6.10184
RightToes  6.35927e-011 1.30204e-014 -6.03759e-014
Spine  33.137 1.34099 -7.43148
Spine1  10.8377 -0.101337 -0.40683
HEad  -48.0722 -0.0375918 -0.556446
LeftShoulder1  0.640708 -0.146378 -10.2282
LeftArm  21.9871 35.5733 -23.181
LeftForeArm  -145.453 -69.2253 -160.168
LeftHand  -0.396671 -5.00604 6.72836
RightShoulder  0.763444 -0.0820634 15.6508
RightArm  16.5321 -48.599 28.9432
RightForeArm  -145.136 72.8914 155.103
RightHand  -0.893369 2.30666 -15.974
LeftUpLeg  -27.7509 27.6953 -0.493677
LeftLeg  64.6507 1.54494 4.32089
LeftFoot  -18.0881 -0.961735 -17.9509
LeftToes  7.40077e-010 7.2695e-011 -6.03601e-011
599
root  -1.42357 35.0852 6.81808 -77.3582 -84.1827 79.9631
RightUpLeg  -67.2005 -50.2731 13.1105
RightLeg  79.7674 -1.37196 -11.3893
RightFoot  14.6003 -2.77008 12.3117
RightToes  6.35927e-011 1.30204e-014 -6.03759e-014
Spine  31.7104 1.39117 -8.58207
Spine1  10.9146 0.100184 -1.83009
HEad  -45.5418 -0.541692 -0.610568
LeftShoulder1  0.787561 -0.862046 -10.7961
LeftArm  24.6636 33.3692 -23.3426
LeftForeArm  -139.205 -67.989 -161.241
LeftHand  -3.14525 -10.8874 24.3383
RightShoulder  0.77887 -0.0881826 16.1974
RightArm  20.2738 -48.5201 29.1091
RightForeArm  -140.32 72.8991 154.83
RightHand  -2.92687 8.23987 -25.7012
LeftUpLeg  -27.042 33.711 -0.787856
LeftLeg  66.3396 -0.295594 0.0598844
LeftFoot  -15.1159 -0.454516 -16.3803
LeftToes  7.40077e-010 7.2695e-011 -6.03601e-011
